<svg xmlns="http://www.w3.org/2000/svg" version="1.1" xmlns:xlink="http://www.w3.org/1999/xlink" xmlns:svgjs="http://svgjs.dev/svgjs" viewBox="0 0 12.470049447490698 11.619706497250885"><g transform="matrix(1,0,0,1,1.0029892012844126,8.652204795966473)"><g><path d=" M 0.921 0.26249999999999973 L 0.615 0.26249999999999973 L 0.615 1.0724999999999998 L 0.3225 1.0724999999999998 L 0.3225 0.26249999999999973 L 0.015 0.26249999999999973 L 0.015 0.00749999999999984 L 0.921 0.00749999999999984 L 0.921 0.26249999999999973 M 1.9845351562500002 0.00749999999999984 L 1.9845351562500002 1.0724999999999998 L 1.69203515625 1.0724999999999998 L 1.69203515625 0.6554999999999997 L 1.33503515625 0.6554999999999997 L 1.33503515625 1.0724999999999998 L 1.04253515625 1.0724999999999998 L 1.04253515625 0.00749999999999984 L 1.33503515625 0.00749999999999984 L 1.33503515625 0.40049999999999975 L 1.69203515625 0.40049999999999975 L 1.69203515625 0.00749999999999984 L 1.9845351562500002 0.00749999999999984 M 2.66253515625 1.0814999999999997 Q 2.5410351562500004 1.0814999999999997 2.4420351562500002 1.0357499999999997 Q 2.34303515625 0.9899999999999998 2.2717851562500004 0.9127499999999997 Q 2.2005351562500004 0.8354999999999998 2.1622851562500003 0.7387499999999998 Q 2.12403515625 0.6419999999999998 2.12403515625 0.5384999999999998 Q 2.12403515625 0.43199999999999983 2.1645351562500004 0.33599999999999974 Q 2.20503515625 0.23999999999999977 2.27778515625 0.16424999999999979 Q 2.3505351562500003 0.0884999999999998 2.45028515625 0.04499999999999971 Q 2.5500351562500003 0.0014999999999998348 2.6685351562500004 0.0014999999999998348 Q 2.79003515625 0.0014999999999998348 2.8890351562500003 0.04724999999999979 Q 2.9880351562500005 0.09299999999999975 3.0585351562500005 0.17099999999999982 Q 3.1290351562500005 0.24899999999999978 3.16728515625 0.3457499999999998 Q 3.2055351562500003 0.4424999999999998 3.2055351562500003 0.5444999999999998 Q 3.2055351562500003 0.6494999999999997 3.16578515625 0.7454999999999998 Q 3.1260351562500004 0.8414999999999998 3.0532851562500003 0.9172499999999998 Q 2.98053515625 0.9929999999999998 2.88153515625 1.0372499999999998 Q 2.7825351562500003 1.0814999999999997 2.66253515625 1.0814999999999997 M 2.4210351562500003 0.5414999999999998 Q 2.4210351562500003 0.5954999999999997 2.4360351562500004 0.6457499999999998 Q 2.45103515625 0.6959999999999997 2.4810351562500004 0.7357499999999998 Q 2.51103515625 0.7754999999999999 2.55678515625 0.7987499999999998 Q 2.60253515625 0.8219999999999998 2.6655351562500003 0.8219999999999998 Q 2.7285351562500004 0.8219999999999998 2.7750351562500004 0.7979999999999998 Q 2.8215351562500004 0.7739999999999998 2.85078515625 0.7327499999999998 Q 2.8800351562500004 0.6914999999999998 2.8942851562500005 0.6412499999999998 Q 2.90853515625 0.5909999999999997 2.90853515625 0.5384999999999998 Q 2.90853515625 0.4844999999999998 2.8935351562500005 0.4349999999999997 Q 2.8785351562500003 0.38549999999999973 2.8485351562500005 0.3457499999999998 Q 2.8185351562500003 0.3059999999999997 2.7720351562500003 0.28349999999999975 Q 2.7255351562500003 0.2609999999999998 2.66403515625 0.2609999999999998 Q 2.60103515625 0.2609999999999998 2.55528515625 0.2849999999999998 Q 2.50953515625 0.3089999999999997 2.4795351562500003 0.3487499999999998 Q 2.44953515625 0.38849999999999973 2.4352851562500004 0.43874999999999975 Q 2.4210351562500003 0.48899999999999977 2.4210351562500003 0.5414999999999998 M 3.8100571289062506 1.0814999999999997 Q 3.68255712890625 1.0814999999999997 3.5910571289062503 1.0394999999999999 Q 3.4995571289062504 0.9974999999999998 3.4418071289062504 0.9239999999999998 Q 3.3840571289062504 0.8504999999999998 3.3570571289062503 0.7552499999999998 Q 3.33005712890625 0.6599999999999997 3.33005712890625 0.5549999999999998 L 3.33005712890625 0.00749999999999984 L 3.6225571289062506 0.00749999999999984 L 3.6225571289062506 0.5549999999999998 Q 3.6225571289062506 0.6074999999999997 3.6330571289062505 0.6554999999999997 Q 3.6435571289062505 0.7034999999999998 3.6660571289062505 0.7409999999999998 Q 3.6885571289062504 0.7784999999999997 3.7238071289062504 0.8002499999999998 Q 3.7590571289062504 0.8219999999999998 3.8100571289062506 0.8219999999999998 Q 3.8625571289062504 0.8219999999999998 3.8985571289062504 0.8002499999999998 Q 3.9345571289062504 0.7784999999999997 3.9563071289062504 0.7402499999999999 Q 3.9780571289062503 0.7019999999999997 3.9885571289062502 0.6539999999999998 Q 3.9990571289062506 0.6059999999999998 3.9990571289062506 0.5549999999999998 L 3.9990571289062506 0.00749999999999984 L 4.29155712890625 0.00749999999999984 L 4.29155712890625 0.5549999999999998 Q 4.29155712890625 0.6659999999999997 4.262307128906251 0.7619999999999998 Q 4.233057128906251 0.8579999999999998 4.17455712890625 0.9299999999999997 Q 4.116057128906251 1.0019999999999998 4.025307128906251 1.0417499999999997 Q 3.9345571289062504 1.0814999999999997 3.8100571289062506 1.0814999999999997 M 4.935028564453125 1.0799999999999998 Q 4.831528564453126 1.0799999999999998 4.737778564453126 1.0432499999999998 Q 4.644028564453126 1.0064999999999997 4.5720285644531256 0.9352499999999998 Q 4.5000285644531255 0.8639999999999998 4.458778564453126 0.7627499999999998 Q 4.417528564453126 0.6614999999999998 4.417528564453126 0.5309999999999998 Q 4.417528564453126 0.41849999999999976 4.459528564453126 0.3224999999999998 Q 4.5015285644531255 0.2264999999999998 4.575778564453126 0.15374999999999972 Q 4.650028564453126 0.08099999999999974 4.749028564453125 0.04049999999999976 Q 4.848028564453125 -2.220446049250313e-16 4.963528564453125 -2.220446049250313e-16 Q 5.107528564453125 -2.220446049250313e-16 5.224528564453125 0.062249999999999694 Q 5.341528564453125 0.12449999999999972 5.398528564453126 0.23249999999999982 L 5.1810285644531255 0.3989999999999998 Q 5.149528564453125 0.33599999999999974 5.0865285644531255 0.29774999999999974 Q 5.023528564453126 0.25949999999999973 4.953028564453126 0.25949999999999973 Q 4.900528564453126 0.25949999999999973 4.857028564453126 0.28049999999999975 Q 4.813528564453126 0.30149999999999977 4.7812785644531255 0.33899999999999975 Q 4.749028564453125 0.3764999999999997 4.731778564453125 0.4282499999999998 Q 4.714528564453126 0.47999999999999976 4.714528564453126 0.5414999999999998 Q 4.714528564453126 0.6044999999999998 4.732528564453125 0.6554999999999997 Q 4.750528564453125 0.7064999999999998 4.7827785644531255 0.7432499999999997 Q 4.815028564453126 0.7799999999999998 4.860028564453126 0.8002499999999998 Q 4.905028564453126 0.8204999999999998 4.960528564453125 0.8204999999999998 Q 5.031028564453125 0.8204999999999998 5.095528564453126 0.7852499999999998 Q 5.160028564453126 0.7499999999999998 5.212528564453126 0.6854999999999998 L 5.212528564453126 0.9704999999999998 Q 5.092528564453126 1.0799999999999998 4.935028564453125 1.0799999999999998 M 5.197528564453125 0.7154999999999998 L 5.001028564453126 0.7154999999999998 L 5.001028564453126 0.5054999999999997 L 5.4390285644531255 0.5054999999999997 L 5.4390285644531255 1.0724999999999998 L 5.197528564453125 1.0724999999999998 L 5.197528564453125 0.7154999999999998 M 6.540049072265626 0.00749999999999984 L 6.540049072265626 1.0724999999999998 L 6.247549072265626 1.0724999999999998 L 6.247549072265626 0.6554999999999997 L 5.890549072265626 0.6554999999999997 L 5.890549072265626 1.0724999999999998 L 5.598049072265626 1.0724999999999998 L 5.598049072265626 0.00749999999999984 L 5.890549072265626 0.00749999999999984 L 5.890549072265626 0.40049999999999975 L 6.247549072265626 0.40049999999999975 L 6.247549072265626 0.00749999999999984 L 6.540049072265626 0.00749999999999984 M 7.567549072265627 0.26249999999999973 L 7.261549072265627 0.26249999999999973 L 7.261549072265627 1.0724999999999998 L 6.969049072265626 1.0724999999999998 L 6.969049072265626 0.26249999999999973 L 6.661549072265626 0.26249999999999973 L 6.661549072265626 0.00749999999999984 L 7.567549072265627 0.00749999999999984 L 7.567549072265627 0.26249999999999973 M 7.689084228515626 1.0724999999999998 L 7.689084228515626 0.00749999999999984 L 8.419584228515626 0.00749999999999984 L 8.419584228515626 0.26249999999999973 L 7.981584228515627 0.26249999999999973 L 7.981584228515627 0.4394999999999998 L 8.338584228515627 0.4394999999999998 L 8.338584228515627 0.6764999999999998 L 7.981584228515627 0.6764999999999998 L 7.981584228515627 1.0724999999999998 L 7.689084228515626 1.0724999999999998 M 9.013566650390626 1.0814999999999997 Q 8.886066650390626 1.0814999999999997 8.794566650390626 1.0394999999999999 Q 8.703066650390626 0.9974999999999998 8.645316650390626 0.9239999999999998 Q 8.587566650390626 0.8504999999999998 8.560566650390626 0.7552499999999998 Q 8.533566650390625 0.6599999999999997 8.533566650390625 0.5549999999999998 L 8.533566650390625 0.00749999999999984 L 8.826066650390626 0.00749999999999984 L 8.826066650390626 0.5549999999999998 Q 8.826066650390626 0.6074999999999997 8.836566650390626 0.6554999999999997 Q 8.847066650390627 0.7034999999999998 8.869566650390626 0.7409999999999998 Q 8.892066650390626 0.7784999999999997 8.927316650390626 0.8002499999999998 Q 8.962566650390626 0.8219999999999998 9.013566650390626 0.8219999999999998 Q 9.066066650390626 0.8219999999999998 9.102066650390626 0.8002499999999998 Q 9.138066650390627 0.7784999999999997 9.159816650390626 0.7402499999999999 Q 9.181566650390627 0.7019999999999997 9.192066650390625 0.6539999999999998 Q 9.202566650390626 0.6059999999999998 9.202566650390626 0.5549999999999998 L 9.202566650390626 0.00749999999999984 L 9.495066650390626 0.00749999999999984 L 9.495066650390626 0.5549999999999998 Q 9.495066650390626 0.6659999999999997 9.465816650390625 0.7619999999999998 Q 9.436566650390626 0.8579999999999998 9.378066650390625 0.9299999999999997 Q 9.319566650390627 1.0019999999999998 9.228816650390627 1.0417499999999997 Q 9.138066650390627 1.0814999999999997 9.013566650390626 1.0814999999999997 M 9.678038085937501 1.0724999999999998 L 9.678038085937501 0.00749999999999984 L 9.970538085937502 0.00749999999999984 L 9.970538085937502 0.8174999999999998 L 10.453538085937502 0.8174999999999998 L 10.453538085937502 1.0724999999999998 L 9.678038085937501 1.0724999999999998" fill="#414588" fill-rule="nonzero"></path></g><g><path d=" M 0.44475000000000003 1.4740125 L 0.255 1.4740125 L 0.255 1.9600125 L 0.2025 1.9600125 L 0.2025 1.4740125 L 0.012750000000000001 1.4740125 L 0.012750000000000001 1.4275125 L 0.44475000000000003 1.4275125 L 0.44475000000000003 1.4740125 M 0.9517390136718751 1.4275125 L 0.9517390136718751 1.9600125 L 0.899989013671875 1.9600125 L 0.899989013671875 1.7110124999999998 L 0.584239013671875 1.7110124999999998 L 0.584239013671875 1.9600125 L 0.531739013671875 1.9600125 L 0.531739013671875 1.4275125 L 0.584239013671875 1.4275125 L 0.584239013671875 1.6645124999999998 L 0.899989013671875 1.6645124999999998 L 0.899989013671875 1.4275125 L 0.9517390136718751 1.4275125 M 1.0927210693359377 1.9600125 L 1.0927210693359377 1.4275125 L 1.1452210693359377 1.4275125 L 1.1452210693359377 1.9600125 L 1.0927210693359377 1.9600125 M 1.3387104492187503 1.5242624999999999 L 1.3387104492187503 1.9600125 L 1.2862104492187503 1.9600125 L 1.2862104492187503 1.4275125 L 1.3297104492187501 1.4275125 L 1.67921044921875 1.8715125 L 1.67921044921875 1.4282624999999998 L 1.7317104492187503 1.4282624999999998 L 1.7317104492187503 1.9600125 L 1.6829604492187502 1.9600125 L 1.3387104492187503 1.5242624999999999 M 1.8726899414062503 1.9600125 L 1.8726899414062503 1.4282624999999998 L 1.9251899414062503 1.4282624999999998 L 1.9251899414062503 1.7372625 L 2.2184399414062503 1.4275125 L 2.2761899414062503 1.4275125 L 2.05868994140625 1.6615125 L 2.2874399414062503 1.9600125 L 2.2281899414062503 1.9600125 L 2.02493994140625 1.6930125 L 1.9251899414062503 1.7965125 L 1.9251899414062503 1.9600125 L 1.8726899414062503 1.9600125 M 2.3624439697265625 1.9600125 L 2.3624439697265625 1.4275125 L 2.4149439697265627 1.4275125 L 2.4149439697265627 1.9600125 L 2.3624439697265625 1.9600125 M 2.608433349609375 1.5242624999999999 L 2.608433349609375 1.9600125 L 2.555933349609375 1.9600125 L 2.555933349609375 1.4275125 L 2.599433349609375 1.4275125 L 2.948933349609375 1.8715125 L 2.948933349609375 1.4282624999999998 L 3.001433349609375 1.4282624999999998 L 3.001433349609375 1.9600125 L 2.9526833496093747 1.9600125 L 2.608433349609375 1.5242624999999999 M 3.356162841796875 1.9637624999999999 Q 3.3029128417968754 1.9637624999999999 3.257162841796875 1.9408874999999999 Q 3.211412841796875 1.9180125 3.177662841796875 1.8790125 Q 3.143912841796875 1.8400124999999998 3.1255378417968753 1.7920125 Q 3.107162841796875 1.7440125 3.107162841796875 1.6930125 Q 3.107162841796875 1.6390125 3.1255378417968753 1.5906375 Q 3.143912841796875 1.5422624999999999 3.176912841796875 1.5047625 Q 3.2099128417968754 1.4672625 3.2549128417968753 1.4455125 Q 3.2999128417968753 1.4237625 3.353162841796875 1.4237625 Q 3.4319128417968754 1.4237625 3.481412841796875 1.4560125 Q 3.530912841796875 1.4882624999999998 3.5564128417968752 1.5400125 L 3.515912841796875 1.5670125 Q 3.4904128417968754 1.5175125 3.447662841796875 1.4942625 Q 3.4049128417968753 1.4710125 3.352412841796875 1.4710125 Q 3.308162841796875 1.4710125 3.272537841796875 1.4897624999999999 Q 3.236912841796875 1.5085125 3.211412841796875 1.5400125 Q 3.1859128417968754 1.5715124999999999 3.1727878417968753 1.6112625 Q 3.1596628417968753 1.6510125 3.1596628417968753 1.6937625 Q 3.1596628417968753 1.7387625 3.1746628417968754 1.7788875 Q 3.189662841796875 1.8190125 3.2174128417968753 1.8501375 Q 3.2451628417968754 1.8812624999999998 3.281537841796875 1.8988874999999998 Q 3.317912841796875 1.9165124999999998 3.3599128417968753 1.9165124999999998 Q 3.4086628417968754 1.9165124999999998 3.4521628417968753 1.8921375 Q 3.495662841796875 1.8677625 3.5354128417968753 1.8167624999999998 L 3.5354128417968753 1.8722625 Q 3.459662841796875 1.9637624999999999 3.356162841796875 1.9637624999999999 M 3.5271628417968754 1.7387625 L 3.4086628417968754 1.7387625 L 3.4086628417968754 1.6982625 L 3.5714128417968753 1.6982625 L 3.5714128417968753 1.9600125 L 3.5271628417968754 1.9600125 L 3.5271628417968754 1.7387625 M 3.8504190673828127 1.6900125 Q 3.8504190673828127 1.6412624999999998 3.867294067382813 1.5943874999999998 Q 3.8841690673828126 1.5475124999999998 3.916419067382813 1.5088875 Q 3.948669067382813 1.4702625 3.995919067382813 1.4473875 Q 4.043169067382813 1.4245125 4.1031690673828125 1.4245125 Q 4.1744190673828125 1.4245125 4.225044067382813 1.4571375 Q 4.275669067382813 1.4897624999999999 4.299669067382813 1.5407625 L 4.258419067382813 1.5662625 Q 4.241169067382813 1.5310124999999999 4.214919067382813 1.5103875 Q 4.188669067382813 1.4897624999999999 4.159044067382813 1.4807625 Q 4.129419067382813 1.4717624999999999 4.100169067382813 1.4717624999999999 Q 4.052169067382813 1.4717624999999999 4.015419067382813 1.4908875 Q 3.9786690673828127 1.5100125 3.953544067382813 1.5418874999999999 Q 3.928419067382813 1.5737625 3.915669067382813 1.6131375 Q 3.902919067382813 1.6525124999999998 3.902919067382813 1.6930125 Q 3.902919067382813 1.7372625 3.917919067382813 1.7777625 Q 3.9329190673828127 1.8182625 3.959919067382813 1.8493875 Q 3.986919067382813 1.8805125 4.023294067382813 1.8988874999999998 Q 4.059669067382813 1.9172624999999999 4.1024190673828125 1.9172624999999999 Q 4.132419067382813 1.9172624999999999 4.163919067382813 1.9067625 Q 4.1954190673828125 1.8962625 4.222794067382813 1.8745125 Q 4.250169067382813 1.8527624999999999 4.2666690673828125 1.8182625 L 4.310169067382813 1.8407624999999999 Q 4.293669067382813 1.8805125 4.259169067382813 1.9082625 Q 4.224669067382813 1.9360125 4.182294067382813 1.9502625 Q 4.139919067382813 1.9645124999999999 4.099419067382813 1.9645124999999999 Q 4.044669067382813 1.9645124999999999 3.998919067382813 1.9408874999999999 Q 3.953169067382813 1.9172624999999999 3.9197940673828127 1.8778875 Q 3.8864190673828127 1.8385125 3.868419067382813 1.7893875 Q 3.8504190673828127 1.7402625 3.8504190673828127 1.6900125 M 4.616152954101563 1.9637624999999999 Q 4.559902954101562 1.9637624999999999 4.514152954101562 1.9412625 Q 4.468402954101562 1.9187625 4.435402954101563 1.8801375 Q 4.402402954101563 1.8415124999999999 4.384402954101563 1.7931374999999998 Q 4.366402954101563 1.7447625 4.366402954101563 1.6937625 Q 4.366402954101563 1.6405124999999998 4.385152954101563 1.5921375 Q 4.403902954101563 1.5437625 4.438027954101563 1.5058875 Q 4.4721529541015625 1.4680125 4.5179029541015625 1.4458875 Q 4.5636529541015625 1.4237625 4.616902954101563 1.4237625 Q 4.673152954101563 1.4237625 4.718902954101563 1.4470125 Q 4.764652954101563 1.4702625 4.797277954101562 1.5092625 Q 4.829902954101563 1.5482624999999999 4.847902954101563 1.5962625 Q 4.865902954101562 1.6442625 4.865902954101562 1.6945124999999999 Q 4.865902954101562 1.7477624999999999 4.8471529541015625 1.7961375 Q 4.828402954101563 1.8445125 4.794652954101562 1.8823874999999999 Q 4.760902954101563 1.9202625 4.715152954101563 1.9420125 Q 4.669402954101563 1.9637624999999999 4.616152954101563 1.9637624999999999 M 4.418902954101562 1.6937625 Q 4.418902954101562 1.7372625 4.433152954101563 1.7773875 Q 4.4474029541015625 1.8175124999999999 4.473652954101563 1.8486375 Q 4.499902954101563 1.8797625 4.536277954101562 1.8981375 Q 4.572652954101563 1.9165124999999998 4.616152954101563 1.9165124999999998 Q 4.661902954101563 1.9165124999999998 4.698277954101563 1.8973875 Q 4.734652954101563 1.8782625 4.760527954101563 1.8463874999999998 Q 4.786402954101563 1.8145125 4.7999029541015625 1.7747625 Q 4.813402954101563 1.7350124999999998 4.813402954101563 1.6937625 Q 4.813402954101563 1.6502625 4.7991529541015625 1.6105125 Q 4.784902954101563 1.5707624999999998 4.758277954101563 1.5392625 Q 4.731652954101563 1.5077625 4.695652954101563 1.4897624999999999 Q 4.6596529541015625 1.4717624999999999 4.616152954101563 1.4717624999999999 Q 4.571152954101563 1.4717624999999999 4.534777954101562 1.4905125 Q 4.498402954101563 1.5092625 4.472527954101563 1.5411375 Q 4.4466529541015625 1.5730125 4.432777954101563 1.6127624999999999 Q 4.418902954101562 1.6525124999999998 4.418902954101562 1.6937625 M 5.117884643554688 1.4275125 L 5.162134643554688 1.4275125 L 5.383384643554688 1.9600125 L 5.327884643554688 1.9600125 L 5.258884643554688 1.7935124999999998 L 5.019634643554688 1.7935124999999998 L 4.951384643554688 1.9600125 L 4.895134643554688 1.9600125 L 5.117884643554688 1.4275125 M 5.246884643554688 1.7522624999999998 L 5.139634643554688 1.4890124999999999 L 5.030884643554688 1.7522624999999998 L 5.246884643554688 1.7522624999999998 M 5.4126529541015636 1.6900125 Q 5.4126529541015636 1.6412624999999998 5.429527954101563 1.5943874999999998 Q 5.446402954101563 1.5475124999999998 5.478652954101563 1.5088875 Q 5.510902954101563 1.4702625 5.558152954101563 1.4473875 Q 5.605402954101563 1.4245125 5.665402954101563 1.4245125 Q 5.736652954101563 1.4245125 5.7872779541015635 1.4571375 Q 5.837902954101564 1.4897624999999999 5.861902954101563 1.5407625 L 5.820652954101563 1.5662625 Q 5.803402954101563 1.5310124999999999 5.777152954101563 1.5103875 Q 5.750902954101563 1.4897624999999999 5.721277954101563 1.4807625 Q 5.6916529541015635 1.4717624999999999 5.662402954101563 1.4717624999999999 Q 5.614402954101563 1.4717624999999999 5.577652954101564 1.4908875 Q 5.540902954101563 1.5100125 5.515777954101563 1.5418874999999999 Q 5.490652954101563 1.5737625 5.477902954101563 1.6131375 Q 5.465152954101563 1.6525124999999998 5.465152954101563 1.6930125 Q 5.465152954101563 1.7372625 5.4801529541015634 1.7777625 Q 5.495152954101563 1.8182625 5.522152954101563 1.8493875 Q 5.549152954101563 1.8805125 5.585527954101563 1.8988874999999998 Q 5.6219029541015635 1.9172624999999999 5.664652954101563 1.9172624999999999 Q 5.694652954101564 1.9172624999999999 5.726152954101563 1.9067625 Q 5.757652954101563 1.8962625 5.7850279541015635 1.8745125 Q 5.812402954101564 1.8527624999999999 5.828902954101563 1.8182625 L 5.872402954101563 1.8407624999999999 Q 5.8559029541015635 1.8805125 5.821402954101563 1.9082625 Q 5.7869029541015635 1.9360125 5.744527954101564 1.9502625 Q 5.702152954101563 1.9645124999999999 5.661652954101563 1.9645124999999999 Q 5.606902954101563 1.9645124999999999 5.561152954101563 1.9408874999999999 Q 5.515402954101563 1.9172624999999999 5.4820279541015635 1.8778875 Q 5.448652954101563 1.8385125 5.430652954101563 1.7893875 Q 5.4126529541015636 1.7402625 5.4126529541015636 1.6900125 M 6.389883544921876 1.4275125 L 6.389883544921876 1.9600125 L 6.338133544921876 1.9600125 L 6.338133544921876 1.7110124999999998 L 6.022383544921876 1.7110124999999998 L 6.022383544921876 1.9600125 L 5.969883544921876 1.9600125 L 5.969883544921876 1.4275125 L 6.022383544921876 1.4275125 L 6.022383544921876 1.6645124999999998 L 6.338133544921876 1.6645124999999998 L 6.338133544921876 1.4275125 L 6.389883544921876 1.4275125" fill="#d8218b" fill-rule="nonzero"></path></g><g clip-path="url(#SvgjsClipPath1001)"><g clip-path="url(#SvgjsClipPath10008766491e-9a92-4e55-9af1-8816b2633e46)"><path d=" M 5.691400433160098e-16 -2.099817049651957 L 1.6019608811601371 -1.1749020697982466 L 3.203921762320274 -2.099817049651957 L 1.6019608811601371 -3.0247320295056666 Z" fill="#f4a156" transform="matrix(1,0,0,1,0,0)" fill-rule="nonzero"></path></g><g clip-path="url(#SvgjsClipPath10008766491e-9a92-4e55-9af1-8816b2633e46)"><path d=" M 3.2039473067866275 -7.649215594682059 L 1.6019864256264909 -6.7243006148283495 L 1.6019864256264909 -4.874540793513275 L 3.2039473067866275 -5.79938563497464 Z" fill="#f25c66" transform="matrix(1,0,0,1,0,0)" fill-rule="nonzero"></path></g><g clip-path="url(#SvgjsClipPath10008766491e-9a92-4e55-9af1-8816b2633e46)"><path d=" M 5.691400433160098e-16 -5.79945114895587 L 5.691400433160098e-16 -2.099861367933377 L 1.6019608811601371 -3.0247763477870864 L 1.6019608811601371 -6.72436612880958 Z" fill="#f4a156" transform="matrix(1,0,0,1,0,0)" fill-rule="nonzero"></path></g><g clip-path="url(#SvgjsClipPath10008766491e-9a92-4e55-9af1-8816b2633e46)"><path d=" M 1.601999955356198 -4.874516322167008 L 1.601999955356198 -3.0247565008519333 L 3.203960836516335 -3.9496013423132985 L 3.203960836516335 -5.799431302020717 Z" fill="#db2b51" transform="matrix(1,0,0,1,0,0)" fill-rule="nonzero"></path></g><g clip-path="url(#SvgjsClipPath10008766491e-9a92-4e55-9af1-8816b2633e46)"><path d=" M 3.2039473067866275 -2.099817049651957 L 4.805908187946764 -3.0247320295056666 L 3.2039473067866275 -3.9496470093593756 L 1.6019864256264909 -3.0247320295056666 Z" fill="#d8218b" transform="matrix(1,0,0,1,0,0)" fill-rule="nonzero"></path></g><g clip-path="url(#SvgjsClipPath10008766491e-9a92-4e55-9af1-8816b2633e46)"><path d=" M 1.601999955356198 -1.1749348267888626 L 3.203960836516335 -0.2500198469351522 L 6.407952737228953 -2.099849806642572 L 4.805921717676471 -3.0247647864962808 Z" fill="#f3c055" transform="matrix(1,0,0,1,0,0)" fill-rule="nonzero"></path></g><g clip-path="url(#SvgjsClipPath10008766491e-9a92-4e55-9af1-8816b2633e46)"><path d=" M 3.2039473067866275 -7.649215594682059 L 3.2039473067866275 -5.79938563497464 L 6.4078690691069005 -3.9496258136595657 L 6.4078690691069005 -5.79938563497464 Z" fill="#d8218b" transform="matrix(1,0,0,1,0,0)" fill-rule="nonzero"></path></g><g clip-path="url(#SvgjsClipPath10008766491e-9a92-4e55-9af1-8816b2633e46)"><path d=" M 4.805894658217056 -3.0247518764408197 L 6.407855539377192 -2.0998368965871093 L 6.407855539377192 -3.9496668562945287 L 4.805894658217056 -4.874581836148238 Z" fill="#685fac" transform="matrix(1,0,0,1,0,0)" fill-rule="nonzero"></path></g><g clip-path="url(#SvgjsClipPath10008766491e-9a92-4e55-9af1-8816b2633e46)"><path d=" M 3.2039473067866275 -5.799398545030102 L 3.2039473067866275 -3.949568585322683 L 4.805908187946764 -3.024723743861318 L 4.805908187946764 -4.8744835651763925 Z" fill="#414588" transform="matrix(1,0,0,1,0,0)" fill-rule="nonzero"></path></g></g></g><defs><clipPath id="SvgjsClipPath1001"><path d=" M 0 -7.649215594682059 h 6.407947217499023 v 7.399215594682059 h -6.407947217499023 Z"></path></clipPath><clipPath id="SvgjsClipPath10008766491e-9a92-4e55-9af1-8816b2633e46"><path d=" M 5.691400433160098e-16 -7.649215594682059 L 6.407947217499023 -7.649215594682059 L 6.407947217499023 -0.25 L 1.1382800866320195e-15 -0.25 Z"></path></clipPath></defs></svg>